0 Arocs real suspension arms and steering sockets: unchanged source placements
0 Name: 42043-ball-link-interfaces.ldr
0 Author: Philippe Hurbain [Philo]
0 !LICENSE Redistributable under CCAL version 2.0 : see CAreadme.txt
0 // Minimal occurrence excerpt from https://library.ldraw.org/library/omr/42043-1.mpd
0 // Source SHA256 6264ccf8fd18d666b68c4538eb69ddfbd87fe5bf633ebf34395b48229e9fc369
0 // Extraction changes no instance transform; colours simplified to16.
0 // 42043 - steeringgear1.ldr:1320
1 16 30.0 -120.073 -142.419 1.0 0.0 0.0 0.0 -0.998 -0.06 0.0 0.06 -0.998 2736.dat
0 // 42043 - Mercedes-Benz Arocs 3245.ldr:123
1 16 -70.0 -120.073 -142.419 1.0 0.0 0.0 0.0 0.998 0.06 0.0 -0.06 0.998 2736.dat
0 // 42043 - 2ndaxle.ldr:1399
1 16 80.0 -90.597 17.611 0.0 0.0 1.0 -1.0 0.0 0.0 0.0 -1.0 0.0 6628.dat
0 // 42043 - 2ndaxle.ldr:1400
1 16 -80.0 -90.597 17.611 0.0 0.0 1.0 -1.0 0.0 0.0 0.0 -1.0 0.0 6628.dat
0 // 42043 - 2ndaxle.ldr:1401
1 16 80.0 -100.0 -60.0 1.0 0.0 0.0 0.0 -0.97 -0.243 0.0 0.243 -0.97 15459.dat
0 // 42043 - 2ndaxle.ldr:1402
1 16 -80.0 -100.0 -60.0 1.0 0.0 0.0 0.0 -0.97 -0.243 0.0 0.243 -0.97 15459.dat
0 // 42043 - 2ndaxle.ldr:1423
1 16 100.0 -70.59700000000001 17.611 0.0 -1.0 0.0 1.0 0.0 0.0 0.0 0.0 1.0 6628.dat
0 // 42043 - 2ndaxle.ldr:1424
1 16 -100.0 -70.59700000000001 17.611 0.0 -1.0 0.0 1.0 0.0 0.0 0.0 0.0 1.0 6628.dat
0 // 42043 - 2ndaxle.ldr:1428
1 16 0.0 -110.597 17.611 0.0 1.0 0.0 1.0 0.0 0.0 0.0 0.0 -1.0 6628.dat
0 // 42043 - 2ndaxle.ldr:1436
1 16 -70.0 -120.59700000000001 17.611 1.0 0.0 0.0 0.0 1.0 0.0 0.0 0.0 1.0 2736.dat
0 // 42043 - 2ndaxle.ldr:1437
1 16 -82.0 -120.59700000000001 17.611 0.0 1.0 0.0 1.0 0.0 0.003 0.003 0.0 -1.0 32293.dat
0 // 42043 - 2ndaxle-2.ldr:1478
1 16 0.0 -140.0 -60.0 -1.0 0.0 0.0 0.0 0.97 -0.243 0.0 -0.243 -0.97 15459.dat
0 // 42043 - frontaxle.ldr:4845
1 16 80.0 -90.56 -242.4 0.0 0.0 1.0 -1.0 0.0 0.0 0.0 -1.0 0.0 6628.dat
0 // 42043 - frontaxle.ldr:4846
1 16 -80.0 -90.56 -242.4 0.0 0.0 1.0 -1.0 0.0 0.0 0.0 -1.0 0.0 6628.dat
0 // 42043 - frontaxle.ldr:4847
1 16 80.0 -99.96300000000001 -320.011 1.0 0.0 0.0 0.0 -0.97 -0.243 0.0 0.243 -0.97 15459.dat
0 // 42043 - frontaxle.ldr:4848
1 16 -80.0 -99.96300000000001 -320.011 1.0 0.0 0.0 0.0 -0.97 -0.243 0.0 0.243 -0.97 15459.dat
0 // 42043 - frontaxle.ldr:4872
1 16 100.0 -70.56 -242.4 0.0 -1.0 0.0 1.0 0.0 0.0 0.0 0.0 1.0 6628.dat
0 // 42043 - frontaxle.ldr:4873
1 16 -100.0 -70.56 -242.4 0.0 -1.0 0.0 1.0 0.0 0.0 0.0 0.0 1.0 6628.dat
0 // 42043 - frontaxle.ldr:4877
1 16 0.0 -110.56 -242.4 0.0 1.0 0.0 1.0 0.0 0.0 0.0 0.0 -1.0 6628.dat
0 // 42043 - frontaxle.ldr:4884
1 16 30.0 -120.56 -242.4 1.0 0.0 0.0 0.0 1.0 0.0 0.0 0.0 1.0 6628.dat
0 // 42043 - frontaxle.ldr:4885
1 16 20.0 -120.56 -242.4 0.0 1.0 0.0 -1.0 0.0 0.0 0.0 0.0 1.0 32005.dat
0 // 42043 - frontaxle-2.ldr:4924
1 16 0.0 -140.0 -320.0 -1.0 0.0 0.0 0.0 0.97 -0.243 0.0 -0.243 -0.97 15459.dat
0 // 42043 - chassisrear2.ldr:5806
1 16 40.0 -140.0 730.0 0.0 0.0 -1.0 0.0 1.0 0.0 1.0 0.0 0.0 6628.dat
0 // 42043 - chassisrear.ldr:5651
1 16 -40.0 -140.0 470.0 0.0 0.0 -1.0 0.0 -1.0 0.0 -1.0 0.0 0.0 6628.dat
0 // 42043 - chassisrear.ldr:5775
1 16 40.0 -140.0 621.0 -1.0 0.0 0.0 0.0 0.973 -0.232 0.0 -0.232 -0.973 15459.dat
0 // 42043 - chassisrear.ldr:5776
1 16 -40.0 -140.0 621.0 -1.0 0.0 0.0 0.0 0.973 -0.232 0.0 -0.232 -0.973 15459.dat
0 // 42043 - chassisrear.ldr:5777
1 16 40.0 -140.0 579.0 1.0 0.0 0.0 0.0 0.973 -0.232 0.0 0.232 0.973 15459.dat
0 // 42043 - chassisrear.ldr:5778
1 16 -40.0 -140.0 579.0 1.0 0.0 0.0 0.0 0.973 -0.232 0.0 0.232 0.973 15459.dat
0 // 42043 - rearaxles.ldr:6064
1 16 -40.0 -110.0 500.0 0.0 0.0 1.0 1.0 0.0 0.0 0.0 1.0 0.0 6628.dat
0 // 42043 - rearaxles.ldr:6065
1 16 40.0 -110.0 500.0 0.0 0.0 1.0 1.0 0.0 0.0 0.0 1.0 0.0 6628.dat
0 // 42043 - rearaxles.ldr:6066
1 16 -40.0 -110.0 700.0 0.0 0.0 1.0 1.0 0.0 0.0 0.0 1.0 0.0 6628.dat
0 // 42043 - rearaxles.ldr:6067
1 16 40.0 -110.0 700.0 0.0 0.0 1.0 1.0 0.0 0.0 0.0 1.0 0.0 6628.dat
0 // 42043 - rearaxles.ldr:6070
1 16 60.0 -120.0 470.0 0.0 0.0 1.0 0.0 1.0 0.0 -1.0 0.0 0.0 6628.dat
0 // 42043 - rearaxles.ldr:6071
1 16 -60.0 -120.0 730.0 0.0 0.0 -1.0 0.0 1.0 0.0 1.0 0.0 0.0 6628.dat
0 // 42043 - rearaxles.ldr:6073
1 16 60.0 -120.0 480.0 0.196 0.0 -0.981 -0.981 0.0 -0.196 0.0 1.0 0.0 32005.dat
0 // 42043 - rearaxles.ldr:6074
1 16 38.058 -139.612 720.0 -0.196 0.0 -0.981 -0.981 0.0 0.196 0.0 1.0 0.0 32005.dat
0 // 42043 - Mercedes-Benz Arocs 3245.ldr:279
1 16 120.0 -200.0 130.0 0.0 -1.0 0.0 0.0 0.0 1.0 -1.0 0.0 0.0 6628.dat
0 // 42043 - Mercedes-Benz Arocs 3245.ldr:302
1 16 -120.0 -200.0 130.0 0.0 -1.0 0.0 0.0 0.0 1.0 -1.0 0.0 0.0 6628.dat
