0 Mercedes-Benz Arocs 42043: isolated actual wheel carriers
0 Name: 42043-wheel-carriers.ldr
0 Author: Philippe Hurbain [Philo]
0 !LDRAW_ORG Model
0 !LICENSE Redistributable under CCAL version 2.0 : see CAreadme.txt
0 // Source: https://library.ldraw.org/library/omr/42043-1.mpd
0 // Original SHA256: 6264ccf8fd18d666b68c4538eb69ddfbd87fe5bf633ebf34395b48229e9fc369
0 // Selected 56 actual occurrences, flattened unchanged.
0 // Preserves original second-front shaft/wheel discrepancy and suspension heights.
0 // Connecting suspension/chassis omitted; not a drivable complete truck.
1 71 120 -80.59700000000001 37.611000000000004 1 0 0 0 0 -1 0 1 0 48989.dat
1 71 -120 -80.59700000000001 37.611000000000004 1 0 0 0 0 -1 0 1 0 48989.dat
1 72 150 -80.59700000000001 17.611 -1 0 0 0 -1 0 0 0 1 87083.dat
1 72 -150 -80.59700000000001 17.611 1 0 0 0 -1 0 0 0 -1 87083.dat
1 71 -135 -80.59700000000001 17.611 0 0 1 0 -1 0 1 0 0 32123a.dat
1 71 135 -80.59700000000001 17.611 0 0 1 0 -1 0 1 0 0 32123a.dat
1 71 120 -80.56 -222.4 1 0 0 0 0 -1 0 1 0 48989.dat
1 71 -120 -80.56 -222.4 1 0 0 0 0 -1 0 1 0 48989.dat
1 72 150 -80.56 -242.4 -1 0 0 0 -1 0 0 0 1 87083.dat
1 72 -150 -80.56 -242.4 1 0 0 0 -1 0 0 0 -1 87083.dat
1 71 -135 -80.56 -242.4 0 0 1 0 -1 0 1 0 0 32123a.dat
1 71 135 -80.56 -242.4 0 0 1 0 -1 0 1 0 0 32123a.dat
1 71 -40 -80 500 -1 0 0 0 -1 0 0 0 1 4519.dat
1 71 40 -80 500 -1 0 0 0 -1 0 0 0 1 4519.dat
1 71 -70 -80 500 0 0 -1 0 1 0 1 0 0 59443.dat
1 71 70 -80 500 0 0 -1 0 1 0 1 0 0 59443.dat
1 72 -127 -80 500 -1 0 0 0 -1 0 0 0 1 59426.dat
1 72 127 -80 500 1 0 0 0 1 0 0 0 1 59426.dat
1 71 -100 -80 500 0 0 1 0 -1 0 1 0 0 32184.dat
1 71 100 -80 500 0 0 1 0 -1 0 1 0 0 32184.dat
1 71 40 -80 700 1 0 0 0 -1 0 0 0 -1 4519.dat
1 71 -40 -80 700 1 0 0 0 -1 0 0 0 -1 4519.dat
1 71 70 -80 700 0 0 1 0 1 0 -1 0 0 59443.dat
1 71 -70 -80 700 0 0 1 0 1 0 -1 0 0 59443.dat
1 72 127 -80 700 1 0 0 0 -1 0 0 0 -1 59426.dat
1 72 -127 -80 700 -1 0 0 0 1 0 0 0 -1 59426.dat
1 71 100 -80 700 0 0 -1 0 -1 0 -1 0 0 32184.dat
1 71 -100 -80 700 0 0 -1 0 -1 0 -1 0 0 32184.dat
1 71 -150 -80.56 -242.4 0 0 1 1 0 0 0 1 0 86652.dat
1 256 -150 -80.56 -242.4 0 0 1 1 0 0 0 1 0 32019.dat
1 71 -150 -80.56 17.6 0 0 1 1 0 0 0 1 0 86652.dat
1 256 -150 -80.56 17.6 0 0 1 1 0 0 0 1 0 32019.dat
1 71 150 -80.56 17.6 0 0 -1 -1 0 0 0 1 0 86652.dat
1 256 150 -80.56 17.6 0 0 -1 -1 0 0 0 1 0 32019.dat
1 71 150 -80.56 -242.4 0 0 -1 -1 0 0 0 1 0 86652.dat
1 256 150 -80.56 -242.4 0 0 -1 -1 0 0 0 1 0 32019.dat
1 71 -125 -80 500 0 0 -1 -1 0 0 0 1 0 86652.dat
1 256 -125 -80 500 0 0 -1 -1 0 0 0 1 0 32019.dat
1 71 -155 -80 500 0 0 1 1 0 0 0 1 0 86652.dat
1 256 -155 -80 500 0 0 1 1 0 0 0 1 0 32019.dat
1 71 -125 -80 700 0 0 -1 -1 0 0 0 1 0 86652.dat
1 256 -125 -80 700 0 0 -1 -1 0 0 0 1 0 32019.dat
1 71 -155 -80 700 0 0 1 1 0 0 0 1 0 86652.dat
1 256 -155 -80 700 0 0 1 1 0 0 0 1 0 32019.dat
1 71 155 -80 500 0 0 -1 -1 0 0 0 1 0 86652.dat
1 256 155 -80 500 0 0 -1 -1 0 0 0 1 0 32019.dat
1 71 125 -80 500 0 0 1 1 0 0 0 1 0 86652.dat
1 256 125 -80 500 0 0 1 1 0 0 0 1 0 32019.dat
1 71 155 -80 700 0 0 -1 -1 0 0 0 1 0 86652.dat
1 256 155 -80 700 0 0 -1 -1 0 0 0 1 0 32019.dat
1 71 125 -80 700 0 0 1 1 0 0 0 1 0 86652.dat
1 256 125 -80 700 0 0 1 1 0 0 0 1 0 32019.dat
1 71 165 -80.56 -242.4 0 0 -1 -1 0 0 0 1 0 32123a.dat
1 71 165 -80.597 17.611 0 0 -1 -1 0 0 0 1 0 32123a.dat
1 71 -165 -80.56 -242.4 0 0 -1 -1 0 0 0 1 0 32123a.dat
1 71 -165 -80.597 17.611 0 0 -1 -1 0 0 0 1 0 32123a.dat
