0 FILE source-hose-attachment.ldr
0 Formula 1 Racer 5540: one flexible hose and isolated endpoint studs
0 Author: N. W. Perry [Plastikean]; fallback geometry generated by LDCad
0 !LICENSE Redistributable under CCAL version 2.0 : see CAreadme.txt
0 // Source: https://library.ldraw.org/library/omr/5540-1.mpd
0 // Original SHA256: 2f371753f4df8a60124a099e1af98986024a24102f39446d2401b97d42812715
0 // Brick Editor review: one actual source hose fallback; two original test supports.
0 // PATH authoring metadata is neither required nor copied here.
0 // This is not a whole-car driving fixture.
1 16 0 0 0 1 0 0 0 1 0 0 0 1 reviewed-hose-part.dat
1 16 0 0 0 1 0 0 0 1 0 0 0 1 3024.dat
1 16 -40 -118 46 1 0 0 0 0 -1 0 1 0 3024.dat
0 FILE reviewed-hose-part.dat
0 Hose Flexible with Normal Ends: isolated literal source fallback
0 Author: LDCad; from N. W. Perry [Plastikean]'s 5540 model
0 !LDRAW_ORG Unofficial_Part
0 !LICENSE Redistributable under CCAL version 2.0 : see CAreadme.txt
0 BFC CERTIFY CCW
1 0 0 -18 0 0 0 1 0 1 0 -1 0 0 752.dat
1 16 0 -18 0 0 0 -1 0 -1 0 -1 0 0 755.dat
1 0 -40 -118 28 0 0 -1 -1 0 0 0 1 0 752.dat
1 16 -40 -118 28 0 0 1 -1 0 0 0 -1 0 755.dat
1 16 0.017026 -23.994805 -0.012601 -0.000031 -0.008535 0.999964 0.006316 0.999944 0.008535 -0.99998 0.006316 0.000023 754.dat
1 16 0.06324 -26.733949 -0.047076 -0.003727 -0.021619 0.999759 0.016079 0.999636 0.021676 -0.999864 0.016156 -0.003378 754.dat
1 16 0.138039 -29.221973 -0.103458 -0.007394 -0.033637 0.999407 0.02518 0.999111 0.033814 -0.999656 0.025415 -0.00654 754.dat
1 16 0.241614 -31.70837 -0.182456 -0.011021 -0.044997 0.998926 0.033959 0.998394 0.045348 -0.999362 0.034422 -0.009475 754.dat
1 16 0.371715 -34.192756 -0.282977 -0.014587 -0.05535 0.99836 0.042165 0.997544 0.055921 -0.999004 0.042912 -0.012217 754.dat
1 16 0.526175 -36.674848 -0.404016 -0.018084 -0.064889 0.997729 0.049971 0.996586 0.06572 -0.998587 0.051046 -0.014779 754.dat
1 16 0.705631 -39.154081 -0.5472 -0.021532 -0.075141 0.99694 0.058801 0.99535 0.076291 -0.998037 0.060264 -0.017014 754.dat
1 16 0.904291 -41.630758 -0.708422 -0.02483 -0.08177 0.996342 0.064837 0.994419 0.083228 -0.997587 0.066666 -0.01939 754.dat
1 16 1.120034 -44.104805 -0.886928 -0.028055 -0.088731 0.99566 0.07161 0.993315 0.09054 -0.997038 0.073839 -0.021514 754.dat
1 16 1.352146 -46.57599 -1.083713 -0.031167 -0.09514 0.994976 0.078613 0.992142 0.097332 -0.996418 0.081252 -0.023443 754.dat
1 16 1.596037 -49.044809 -1.295531 -0.034162 -0.099154 0.994486 0.083689 0.991288 0.10171 -0.995906 0.086702 -0.025566 754.dat
1 16 1.849041 -51.511451 -1.521535 -0.037035 -0.102663 0.994027 0.089127 0.990405 0.10561 -0.995332 0.092506 -0.02753 754.dat
1 16 2.108507 -53.976076 -1.761828 -0.039744 -0.104868 0.993692 0.094512 0.989624 0.108219 -0.99473 0.098216 -0.029421 754.dat
1 16 2.370287 -56.439321 -2.013549 -0.042385 -0.105253 0.993542 0.098343 0.989167 0.108985 -0.994249 0.102328 -0.031575 754.dat
1 16 2.630098 -58.901663 -2.275901 -0.044799 -0.10396 0.993572 0.102482 0.988845 0.108087 -0.993726 0.106666 -0.033645 754.dat
1 16 2.884037 -61.363721 -2.546556 -0.047192 -0.101146 0.993752 0.105243 0.988819 0.105642 -0.993326 0.109571 -0.036019 754.dat
1 16 3.125937 -63.826221 -2.824072 -0.049288 -0.095449 0.994213 0.107944 0.989084 0.100308 -0.992934 0.112263 -0.038447 754.dat
1 16 3.350068 -66.289889 -3.106037 -0.051334 -0.087698 0.994823 0.109462 0.989641 0.09289 -0.992665 0.113664 -0.041203 754.dat
1 16 3.549912 -68.755428 -3.38969 -0.053234 -0.077088 0.995602 0.110122 0.990482 0.08258 -0.992491 0.114034 -0.044238 754.dat
1 16 3.719868 -71.2233 -3.672384 -0.055126 -0.06449 0.996395 0.10985 0.991463 0.070249 -0.992418 0.113327 -0.047571 754.dat
1 16 3.847467 -73.694216 -3.950373 -0.056658 -0.045593 0.997352 0.108298 0.992782 0.051536 -0.992503 0.110931 -0.051311 754.dat
1 16 3.922069 -76.16826 -4.219409 -0.058245 -0.023289 0.998031 0.105321 0.994005 0.029342 -0.992731 0.106823 -0.055443 754.dat
1 16 3.931577 -78.644812 -4.474465 -0.059822 0.004494 0.998199 0.100653 0.99492 0.001553 -0.993122 0.100565 -0.05997 754.dat
1 16 3.855068 -81.12212 -4.707811 -0.06137 0.041929 0.997234 0.09327 0.994986 -0.036094 -0.993748 0.090797 -0.064973 754.dat
1 16 3.680733 -83.596727 -4.913539 -0.063492 0.082016 0.994607 0.08446 0.993483 -0.076531 -0.994402 0.079145 -0.070005 754.dat
1 16 3.407434 -85.615943 -5.041127 -0.066143 0.163422 0.984336 0.064399 0.985139 -0.159228 -0.99573 0.052858 -0.075684 756.dat
1 16 2.673576 -89.583478 -5.228807 -0.07528 -0.261803 -0.962181 0.038914 -0.964955 0.259514 -0.996403 -0.017907 0.08283 754.dat
1 16 1.957684 -91.963699 -5.248508 -0.084075 -0.348501 -0.93353 0.01479 -0.93718 0.348532 -0.99635 0.015496 0.083948 754.dat
1 16 1.021154 -94.264022 -5.181277 -0.096978 -0.44204 -0.891737 -0.012213 -0.895365 0.445166 -0.995212 0.054062 0.081432 754.dat
1 16 -0.150487 -96.447355 -5.014882 -0.114891 -0.539103 -0.834367 -0.041043 -0.836635 0.54622 -0.99253 0.097001 0.073996 754.dat
1 16 -1.56005 -98.472934 -4.740778 -0.13755 -0.631569 -0.763021 -0.069035 -0.762357 0.643464 -0.988086 0.141184 0.061262 754.dat
1 16 -3.189596 -100.307549 -4.359096 -0.162908 -0.710535 -0.684544 -0.09307 -0.679652 0.727607 -0.982242 0.182244 0.044591 754.dat
1 16 -5.005628 -101.932599 -3.877991 -0.189966 -0.775839 -0.601653 -0.112885 -0.591487 0.798373 -0.975279 0.219581 0.024782 754.dat
1 16 -6.970769 -103.342178 -3.305897 -0.219034 -0.822839 -0.524366 -0.129239 -0.508214 0.851478 -0.96712 0.254271 0.004973 754.dat
1 16 -9.022846 -104.554436 -2.604586 -0.302049 -0.829412 -0.469939 -0.170242 -0.438109 0.882654 -0.937968 0.346608 -0.008871 754.dat
1 16 -11.077857 -105.617156 -1.692529 -0.3691 -0.81749 -0.442125 -0.185766 -0.401223 0.896945 -0.910635 0.413195 -0.003771 754.dat
1 16 -13.104792 -106.599221 -0.634756 -0.412544 -0.80713 -0.422314 -0.186376 -0.37901 0.90643 -0.891668 0.452651 0.005929 754.dat
1 16 -15.107299 -107.531586 0.511778 -0.444763 -0.798467 -0.405754 -0.179741 -0.364241 0.913795 -0.877428 0.479353 0.018484 754.dat
1 16 -17.088532 -108.429388 1.721379 -0.472976 -0.79015 -0.389817 -0.169781 -0.352406 0.920318 -0.864562 0.501472 0.032527 754.dat
1 16 -19.049559 -109.29963 2.983086 -0.497641 -0.78248 -0.374272 -0.156999 -0.34311 0.926081 -0.853056 0.519616 0.047897 754.dat
1 16 -20.990939 -110.147107 4.289884 -0.522195 -0.774055 -0.357982 -0.143053 -0.33431 0.931543 -0.840743 0.537658 0.063845 754.dat
1 16 -22.911609 -110.973774 5.639961 -0.544663 -0.765972 -0.34151 -0.127308 -0.326977 0.936418 -0.828936 0.553509 0.080578 754.dat
1 16 -24.811183 -111.782055 7.030385 -0.568044 -0.756575 -0.323913 -0.111123 -0.319464 0.94106 -0.815462 0.570558 0.097397 754.dat
1 16 -26.686955 -112.571986 8.463015 -0.590889 -0.746634 -0.305594 -0.094096 -0.312427 0.94527 -0.801246 0.587305 0.114354 754.dat
1 16 -28.536738 -113.344132 9.938444 -0.614749 -0.735027 -0.28604 -0.07696 -0.305031 0.949228 -0.784959 0.605551 0.13095 754.dat
1 16 -30.355538 -114.097195 11.461388 -0.640751 -0.720619 -0.264852 -0.060223 -0.296734 0.953059 -0.765384 0.626624 0.146734 754.dat
1 16 -32.136086 -114.828885 13.038811 -0.668733 -0.703037 -0.241941 -0.043922 -0.287483 0.956778 -0.742204 0.650456 0.16137 754.dat
1 16 -33.868818 -115.536086 14.679098 -0.700449 -0.680064 -0.216525 -0.028712 -0.276287 0.960646 -0.713124 0.679101 0.173999 754.dat
1 16 -35.537168 -116.212659 16.39656 -0.738657 -0.647543 -0.187279 -0.015504 -0.261435 0.965097 -0.673903 0.715779 0.183072 754.dat
1 16 -37.108877 -116.846087 18.216681 -0.789971 -0.59425 -0.15104 -0.006339 -0.238407 0.971145 -0.613111 0.768134 0.184568 754.dat
1 16 -38.51444 -117.409086 20.183717 -0.861506 -0.497077 -0.103551 -0.003447 -0.19821 0.980153 -0.507736 0.844765 0.169046 754.dat
1 16 -39.563264 -117.826877 22.346966 -0.966476 -0.254138 -0.036582 -0.011166 -0.100741 0.99485 -0.256515 0.961907 0.094526 754.dat
