0 Formula 1 Racer 5540: isolated source wheel mounts
0 Name: 5540-wheel-mounts.ldr
0 Author: N. W. Perry [Plastikean]
0 !LDRAW_ORG Model
0 !LICENSE Redistributable under CCAL version 2.0 : see CAreadme.txt
0 // Source: https://library.ldraw.org/library/omr/5540-1.mpd
0 // Original SHA256: 2f371753f4df8a60124a099e1af98986024a24102f39446d2401b97d42812715
0 // Brick Editor review: selected 52 real mount/wheel occurrences, flattened unchanged.
0 // This excerpt omits the connecting chassis; it is not a drivable whole car.
1 15 -160 -54 -200 0 0 1 1 0 0 0 1 0 2695.dat
1 256 -160 -54 -200 0 0 1 1 0 0 0 1 0 2696.dat
1 15 -128 -54 -200 0 0 1 1 0 0 0 1 0 2695.dat
1 256 -128 -54 -200 0 0 1 1 0 0 0 1 0 2696.dat
1 7 -150 -54 -220 1 0 0 0 0 -1 0 1 0 3749.dat
1 7 -150 -54 -180 1 0 0 0 0 -1 0 1 0 3749.dat
1 7 -110 -64 -200 1 0 0 0 1 0 0 0 1 4261.dat
1 0 -140 -54 -200 1 0 0 0 1 0 0 0 1 3706.dat
1 7 -90 -54 -200 0 0 1 1 0 0 0 1 0 3713.dat
1 7 -178 -54 -200 0 0 -1 1 0 0 0 -1 0 3713.dat
1 0 -80 -72 -200 1 0 0 0 1 0 0 0 1 4263.dat
1 0 -60 -40 -200 1 0 0 0 1 0 0 0 1 4262.dat
1 15 128 -54 -200 0 0 -1 0 1 0 1 0 0 2695.dat
1 256 128 -54 -200 0 0 -1 0 1 0 1 0 0 2696.dat
1 15 160 -54 -200 0 0 -1 0 1 0 1 0 0 2695.dat
1 256 160 -54 -200 0 0 -1 0 1 0 1 0 0 2696.dat
1 7 150 -74 -200 -1 0 0 0 1 0 0 0 -1 3749.dat
1 7 150 -34 -200 -1 0 0 0 1 0 0 0 -1 3749.dat
1 7 110 -64 -200 1 0 0 0 1 0 0 0 1 4261.dat
1 0 140 -54 -200 1 0 0 0 1 0 0 0 1 3706.dat
1 7 90 -54 -200 0 0 -1 1 0 0 0 -1 0 3713.dat
1 7 178 -54 -200 0 0 1 1 0 0 0 1 0 3713.dat
1 0 80 -72 -200 1 0 0 0 1 0 0 0 1 4263.dat
1 0 60 -40 -200 1 0 0 0 1 0 0 0 1 4262.dat
1 15 -152 -54 230 0 0 1 1 0 0 0 1 0 2695.dat
1 256 -152 -54 230 0 0 1 1 0 0 0 1 0 2696.dat
1 15 -120 -54 230 0 0 1 1 0 0 0 1 0 2695.dat
1 256 -120 -54 230 0 0 1 1 0 0 0 1 0 2696.dat
1 15 -88 -54 230 0 0 1 1 0 0 0 1 0 2695.dat
1 256 -88 -54 230 0 0 1 1 0 0 0 1 0 2696.dat
1 7 -142 -54 210 1 0 0 0 0 -1 0 1 0 3749.dat
1 7 -142 -54 250 1 0 0 0 0 -1 0 1 0 3749.dat
1 7 -110 -54 210 1 0 0 0 0 -1 0 1 0 3749.dat
1 7 -110 -54 250 1 0 0 0 0 -1 0 1 0 3749.dat
1 0 -70 -64 230 0 0 1 0 1 0 -1 0 0 3700.dat
1 0 -100 -54 230 1 0 0 0 1 0 0 0 1 3707.dat
1 7 -30 -54 230 0 0 1 1 0 0 0 1 0 3713.dat
1 7 -170 -54 230 0 0 -1 1 0 0 0 -1 0 3713.dat
1 15 88 -54 230 0 0 -1 0 1 0 1 0 0 2695.dat
1 256 88 -54 230 0 0 -1 0 1 0 1 0 0 2696.dat
1 15 120 -54 230 0 0 -1 0 1 0 1 0 0 2695.dat
1 256 120 -54 230 0 0 -1 0 1 0 1 0 0 2696.dat
1 15 152 -54 230 0 0 -1 0 1 0 1 0 0 2695.dat
1 256 152 -54 230 0 0 -1 0 1 0 1 0 0 2696.dat
1 7 110 -74 230 -1 0 0 0 1 0 0 0 -1 3749.dat
1 7 110 -34 230 -1 0 0 0 1 0 0 0 -1 3749.dat
1 7 142 -74 230 -1 0 0 0 1 0 0 0 -1 3749.dat
1 7 142 -34 230 -1 0 0 0 1 0 0 0 -1 3749.dat
1 0 70 -64 230 0 0 1 0 1 0 -1 0 0 3700.dat
1 0 100 -54 230 1 0 0 0 1 0 0 0 1 3707.dat
1 7 30 -54 230 0 0 -1 1 0 0 0 -1 0 3713.dat
1 7 170 -54 230 0 0 1 1 0 0 0 1 0 3713.dat
