0 Formula 1 Racer 5540: attached source graph excerpt
0 Name: 5540-attached-graph.ldr
0 Author: N. W. Perry [Plastikean]
0 !LDRAW_ORG Model
0 !LICENSE Redistributable under CCAL version 2.0 : see CAreadme.txt
0 // Source: https://library.ldraw.org/library/omr/5540-1.mpd
0 // Original SHA256: 2f371753f4df8a60124a099e1af98986024a24102f39446d2401b97d42812715
0 // Brick Editor review: the 84 attached placements of 5540-carrier-graph.ldr, unchanged,
0 // without its separate cowl and pulley/tyre islands (for driving tests).
1 15 0 -32 -110 0 0 1 0 1 0 -1 0 0 3456.dat
1 15 0 -32 150 0 0 1 0 1 0 -1 0 0 3028.dat
1 4 0 -40 -220 1 0 0 0 1 0 0 0 1 3666.dat
1 4 -50 -40 -80 1 0 0 0 1 0 0 0 1 3623.dat
1 4 -80 -40 50 0 0 1 0 1 0 -1 0 0 3028.dat
1 0 -60 -40 -200 1 0 0 0 1 0 0 0 1 4262.dat
1 0 60 -40 -200 1 0 0 0 1 0 0 0 1 4262.dat
1 4 0 -40 -130 1 0 0 0 1 0 0 0 1 3022.dat
1 15 0 -40 110 0 0 1 0 1 0 -1 0 0 3832.dat
1 0 0 -40 220 1 0 0 0 1 0 0 0 1 3460.dat
1 0 -70 -64 230 0 0 1 0 1 0 -1 0 0 3700.dat
1 0 70 -64 230 0 0 1 0 1 0 -1 0 0 3700.dat
1 0 -100 -54 230 1 0 0 0 1 0 0 0 1 3707.dat
1 7 -30 -54 230 0 0 1 1 0 0 0 1 0 3713.dat
1 0 100 -54 230 1 0 0 0 1 0 0 0 1 3707.dat
1 7 30 -54 230 0 0 -1 1 0 0 0 -1 0 3713.dat
1 0 -10 -56 -210 0 0 1 0 1 0 -1 0 0 4531.dat
1 0 -10 -65.029 -212.682 0 0 1 0.307 0.952 0 -0.952 0.307 0 4275a.dat
1 0 10 -56 -210 0 0 1 0 1 0 -1 0 0 4531.dat
1 0 10 -65.029 -212.682 0 0 1 0.307 0.952 0 -0.952 0.307 0 4275a.dat
1 4 0 -64 -130 1 0 0 0 1 0 0 0 1 3003.dat
1 7 -10 -64 70 0 0 1 0 1 0 -1 0 0 3937.dat
1 7 -10 -64 110 0 0 1 0 1 0 -1 0 0 3937.dat
1 7 10 -64 70 0 0 -1 0 1 0 1 0 0 3937.dat
1 7 10 -64 110 0 0 -1 0 1 0 1 0 0 3937.dat
1 7 -110 -64 -200 1 0 0 0 1 0 0 0 1 4261.dat
1 0 -140 -54 -200 1 0 0 0 1 0 0 0 1 3706.dat
1 7 -90 -54 -200 0 0 1 1 0 0 0 1 0 3713.dat
1 7 -110 -64 -160 0 0 1 1 0 0 0 1 0 3749.dat
1 7 110 -64 -200 1 0 0 0 1 0 0 0 1 4261.dat
1 0 140 -54 -200 1 0 0 0 1 0 0 0 1 3706.dat
1 7 90 -54 -200 0 0 -1 1 0 0 0 -1 0 3713.dat
1 7 110 -64 -160 0 0 1 1 0 0 0 1 0 3749.dat
1 0 -80 -72 -200 1 0 0 0 1 0 0 0 1 4263.dat
1 0 80 -72 -200 1 0 0 0 1 0 0 0 1 4263.dat
1 7 -18 -60 70 0 0.8 0.6 0 0.6 -0.8 -1 0 0 3938.dat
1 7 -18 -60 110 0 0.8 0.6 0 0.6 -0.8 -1 0 0 3938.dat
1 7 18 -60 70 0 -0.8 0.6 0 0.6 0.8 -1 0 0 3938.dat
1 7 18 -60 110 0 -0.8 0.6 0 0.6 0.8 -1 0 0 3938.dat
1 0 -80 -72 -160 1 0 0 0 1 0 0 0 1 4263.dat
1 0 80 -72 -160 1 0 0 0 1 0 0 0 1 4263.dat
1 0 0 -88 -140 1 0 0 0 1 0 0 0 1 3937.dat
1 0 0 -87.516 -143.074 1 0 0 0 0.952 -0.307 0 0.307 0.952 3938.dat
1 15 -128 -54 -200 0 0 1 1 0 0 0 1 0 2695.dat
1 256 -128 -54 -200 0 0 1 1 0 0 0 1 0 2696.dat
1 15 128 -54 -200 0 0 -1 0 1 0 1 0 0 2695.dat
1 256 128 -54 -200 0 0 -1 0 1 0 1 0 0 2696.dat
1 15 -88 -54 230 0 0 1 1 0 0 0 1 0 2695.dat
1 256 -88 -54 230 0 0 1 1 0 0 0 1 0 2696.dat
1 15 88 -54 230 0 0 -1 0 1 0 1 0 0 2695.dat
1 256 88 -54 230 0 0 -1 0 1 0 1 0 0 2696.dat
1 15 -160 -54 -200 0 0 1 1 0 0 0 1 0 2695.dat
1 7 -150 -54 -220 1 0 0 0 0 -1 0 1 0 3749.dat
1 7 -150 -54 -180 1 0 0 0 0 -1 0 1 0 3749.dat
1 256 -160 -54 -200 0 0 1 1 0 0 0 1 0 2696.dat
1 7 -178 -54 -200 0 0 -1 1 0 0 0 -1 0 3713.dat
1 15 160 -54 -200 0 0 -1 0 1 0 1 0 0 2695.dat
1 7 150 -74 -200 -1 0 0 0 1 0 0 0 -1 3749.dat
1 7 150 -34 -200 -1 0 0 0 1 0 0 0 -1 3749.dat
1 256 160 -54 -200 0 0 -1 0 1 0 1 0 0 2696.dat
1 7 178 -54 -200 0 0 1 1 0 0 0 1 0 3713.dat
1 0 0 -48 -70 1 0 0 0 1 0 0 0 1 3020.dat
1 0 -30 -56 -70 0 0 -1 0 1 0 1 0 0 4276a.dat
1 0 -30 -82.176 -37.675 0 0 1 0.978 0.208 0 -0.208 0.978 0 4275a.dat
1 0 30 -56 -70 0 0 -1 0 1 0 1 0 0 4276a.dat
1 0 30 -82.176 -37.675 0 0 1 0.978 0.208 0 -0.208 0.978 0 4275a.dat
1 15 -120 -54 230 0 0 1 1 0 0 0 1 0 2695.dat
1 7 -110 -54 210 1 0 0 0 0 -1 0 1 0 3749.dat
1 7 -110 -54 250 1 0 0 0 0 -1 0 1 0 3749.dat
1 256 -120 -54 230 0 0 1 1 0 0 0 1 0 2696.dat
1 15 -152 -54 230 0 0 1 1 0 0 0 1 0 2695.dat
1 7 -142 -54 210 1 0 0 0 0 -1 0 1 0 3749.dat
1 7 -142 -54 250 1 0 0 0 0 -1 0 1 0 3749.dat
1 256 -152 -54 230 0 0 1 1 0 0 0 1 0 2696.dat
1 7 -170 -54 230 0 0 -1 1 0 0 0 -1 0 3713.dat
1 15 120 -54 230 0 0 -1 0 1 0 1 0 0 2695.dat
1 7 110 -74 230 -1 0 0 0 1 0 0 0 -1 3749.dat
1 7 110 -34 230 -1 0 0 0 1 0 0 0 -1 3749.dat
1 256 120 -54 230 0 0 -1 0 1 0 1 0 0 2696.dat
1 15 152 -54 230 0 0 -1 0 1 0 1 0 0 2695.dat
1 7 142 -74 230 -1 0 0 0 1 0 0 0 -1 3749.dat
1 7 142 -34 230 -1 0 0 0 1 0 0 0 -1 3749.dat
1 256 152 -54 230 0 0 -1 0 1 0 1 0 0 2696.dat
1 7 170 -54 230 0 0 1 1 0 0 0 1 0 3713.dat
