0 Formula 1 Racer 5540: isolated removable cowl support faces
0 Name: 5540-cowl-support.ldr
0 Author: N. W. Perry [Plastikean]
0 !LDRAW_ORG Model
0 !LICENSE Redistributable under CCAL version 2.0 : see CAreadme.txt
0 // Source: https://library.ldraw.org/library/omr/5540-1.mpd
0 // Original SHA256: 2f371753f4df8a60124a099e1af98986024a24102f39446d2401b97d42812715
0 // Brick Editor review: two actual source occurrences, flattened unchanged.
0 // The cowl slope rests on the chassis tile. This excerpt proves contact only.
1 4 -90 -120 10 0 0 1 0 1 0 -1 0 0 3297.dat
1 15 -130 -96 50 0 0 1 0 1 0 -1 0 0 4162.dat
