0 Door room
0 Name: door-room.ldr
0 Author: Brick Editor contributors
0 !LICENSE Licensed under CC0 1.0
0 !HELP The door hinges on the frame's left pins (x = -32, z = 5).
1 15 0 -144 0 1 0 0 0 1 0 0 0 1 60596.dat
1 4 -32 -144 5 1 0 0 0 1 0 0 0 1 60616a.dat
1 71 -120 -24 0 1 0 0 0 1 0 0 0 1 3008.dat
1 72 -120 -48 0 1 0 0 0 1 0 0 0 1 3008.dat
1 71 -120 -72 0 1 0 0 0 1 0 0 0 1 3008.dat
1 72 -120 -96 0 1 0 0 0 1 0 0 0 1 3008.dat
1 71 -120 -120 0 1 0 0 0 1 0 0 0 1 3008.dat
1 72 -120 -144 0 1 0 0 0 1 0 0 0 1 3008.dat
1 71 120 -24 0 1 0 0 0 1 0 0 0 1 3008.dat
1 72 120 -48 0 1 0 0 0 1 0 0 0 1 3008.dat
1 71 120 -72 0 1 0 0 0 1 0 0 0 1 3008.dat
1 72 120 -96 0 1 0 0 0 1 0 0 0 1 3008.dat
1 71 120 -120 0 1 0 0 0 1 0 0 0 1 3008.dat
1 72 120 -144 0 1 0 0 0 1 0 0 0 1 3008.dat
1 71 -120 -24 -280 1 0 0 0 1 0 0 0 1 3008.dat
1 72 -120 -48 -280 1 0 0 0 1 0 0 0 1 3008.dat
1 71 -120 -72 -280 1 0 0 0 1 0 0 0 1 3008.dat
1 72 -120 -96 -280 1 0 0 0 1 0 0 0 1 3008.dat
1 71 -120 -120 -280 1 0 0 0 1 0 0 0 1 3008.dat
1 72 -120 -144 -280 1 0 0 0 1 0 0 0 1 3008.dat
1 71 0 -24 -280 1 0 0 0 1 0 0 0 1 3010.dat
1 72 0 -48 -280 1 0 0 0 1 0 0 0 1 3010.dat
1 71 0 -72 -280 1 0 0 0 1 0 0 0 1 3010.dat
1 72 0 -96 -280 1 0 0 0 1 0 0 0 1 3010.dat
1 71 0 -120 -280 1 0 0 0 1 0 0 0 1 3010.dat
1 72 0 -144 -280 1 0 0 0 1 0 0 0 1 3010.dat
1 71 120 -24 -280 1 0 0 0 1 0 0 0 1 3008.dat
1 72 120 -48 -280 1 0 0 0 1 0 0 0 1 3008.dat
1 71 120 -72 -280 1 0 0 0 1 0 0 0 1 3008.dat
1 72 120 -96 -280 1 0 0 0 1 0 0 0 1 3008.dat
1 71 120 -120 -280 1 0 0 0 1 0 0 0 1 3008.dat
1 72 120 -144 -280 1 0 0 0 1 0 0 0 1 3008.dat
1 71 -210 -24 -50 0 0 1 0 1 0 -1 0 0 3008.dat
1 72 -210 -48 -50 0 0 1 0 1 0 -1 0 0 3008.dat
1 71 -210 -72 -50 0 0 1 0 1 0 -1 0 0 3008.dat
1 72 -210 -96 -50 0 0 1 0 1 0 -1 0 0 3008.dat
1 71 -210 -120 -50 0 0 1 0 1 0 -1 0 0 3008.dat
1 72 -210 -144 -50 0 0 1 0 1 0 -1 0 0 3008.dat
1 71 -210 -24 -210 0 0 1 0 1 0 -1 0 0 3008.dat
1 72 -210 -48 -210 0 0 1 0 1 0 -1 0 0 3008.dat
1 71 -210 -72 -210 0 0 1 0 1 0 -1 0 0 3008.dat
1 72 -210 -96 -210 0 0 1 0 1 0 -1 0 0 3008.dat
1 71 -210 -120 -210 0 0 1 0 1 0 -1 0 0 3008.dat
1 72 -210 -144 -210 0 0 1 0 1 0 -1 0 0 3008.dat
1 71 210 -24 -50 0 0 1 0 1 0 -1 0 0 3008.dat
1 72 210 -48 -50 0 0 1 0 1 0 -1 0 0 3008.dat
1 71 210 -72 -50 0 0 1 0 1 0 -1 0 0 3008.dat
1 72 210 -96 -50 0 0 1 0 1 0 -1 0 0 3008.dat
1 71 210 -120 -50 0 0 1 0 1 0 -1 0 0 3008.dat
1 72 210 -144 -50 0 0 1 0 1 0 -1 0 0 3008.dat
1 71 210 -24 -210 0 0 1 0 1 0 -1 0 0 3008.dat
1 72 210 -48 -210 0 0 1 0 1 0 -1 0 0 3008.dat
1 71 210 -72 -210 0 0 1 0 1 0 -1 0 0 3008.dat
1 72 210 -96 -210 0 0 1 0 1 0 -1 0 0 3008.dat
1 71 210 -120 -210 0 0 1 0 1 0 -1 0 0 3008.dat
1 72 210 -144 -210 0 0 1 0 1 0 -1 0 0 3008.dat
