0 Complete library fixture
0 Name: full-library.ldr
0 Author: brick-editor fixtures (CC0-1.0)
0 // Official parts outside the curated catalogue (plus one curated brick).
1 4 0 0 0 1 0 0 0 1 0 0 0 1 3001.dat
1 15 200 0 0 1 0 0 0 1 0 0 0 1 3861.dat
1 1 400 0 0 1 0 0 0 1 0 0 0 1 60616b.dat
1 71 600 0 0 1 0 0 0 1 0 0 0 1 86500.dat
1 14 800 0 0 1 0 0 0 1 0 0 0 1 30367c.dat
1 0 1000 0 0 1 0 0 0 1 0 0 0 1 6079.dat
1 72 1200 0 0 1 0 0 0 1 0 0 0 1 32932.dat
1 4 1400 0 0 1 0 0 0 1 0 0 0 1 15254.dat
1 15 1600 0 0 1 0 0 0 1 0 0 0 1 3581.dat
1 2 1800 0 0 1 0 0 0 1 0 0 0 1 3582.dat
