0 42043-1 drivetrain interfaces: attributed minimal source assembly excerpt
0 Author: Philippe Hurbain [Philo]; assembly excerpt by Brick Editor maintainers
0 !LICENSE Redistributable under CCAL version 2.0 : see CAreadme.txt
0 !SOURCE https://library.ldraw.org/library/omr/42043-1.mpd
0 !SOURCE_SHA256 6264ccf8fd18d666b68c4538eb69ddfbd87fe5bf633ebf34395b48229e9fc369
0 // Flattened original nested placements; no invented mounting or part geometry.
0 // Deliberately partial fixture: motor interfaces and one selector shaft only.
0 // Source line 554: 42043 - lmotorsupport.ldr
1 71 -20 -170 20 0 0 1 -1 0 0 0 -1 0 2780.dat
0 // Source line 560: 42043 - lmotorsupport.ldr
1 71 20 -170 20 0 0 1 -1 0 0 0 -1 0 2780.dat
0 // Source line 595: 42043 - powerFuncMotorL-1.ldr
1 71 0 -200 150 0 -1 0 -1 0 0 0 0 -1 99499.dat
0 // Source line 5575: 42043 - frontoutrigger4.ldr
1 71 20 -200 150 0 0 -1 0 1 0 1 0 0 2780.dat
0 // Source line 5576: 42043 - frontoutrigger4.ldr
1 71 -20 -200 150 0 0 -1 0 1 0 1 0 0 2780.dat
0 // Source line 5590: 42043 - frontoutrigger4.ldr
1 71 0 -200 210 0 -0.966 -0.259 0 0.259 -0.966 1 0 0 3707.dat
0 // Source line 5594: 42043 - frontoutrigger4.ldr
1 71 120 -200 220 1 0 0 0 1 0 0 0 1 18946.dat
0 // Source line 5603: 42043 - frontoutrigger4.ldr
1 71 120 -200 259.5 1 0 0 0 1 0 0 0 1 18948.dat
0 // Source line 5614: 42043 - frontoutrigger4.ldr
1 71 120 -200 259 0 -1 0 1 0 0 0 0 1 18947.dat
0 // Source line 5616: 42043 - frontoutrigger4.ldr
1 71 120 -200 299 0.966 0.259 0 -0.259 0.966 0 0 0 1 18946.dat
