0 42042 complete first winch hardware excerpt for axial retention review
0 Author: Philippe Hurbain [Philo]
0 !LICENSE Licensed under CC BY 2.0: see CAreadme.txt
0 Source: https://library.ldraw.org/library/omr/42042-1.mpd
0 Original SHA256: d9c3aa6e0351fd7bcc352e817dafd2c095d4192d7f691ddbb7c5eece03d7237b
0 All27 directly placed hardware occurrences12085..12114; exact composed source frames.
0 Original member colours replaced by test grey71; ropes and separately placed second winch omitted.
0 Original source line 12085
1 71 -125 -350 110 0 -1 0 -1 0 0 0 0 -1 32449.dat
0 Original source line 12086
1 71 -92 -350 140 -1 0 0 0 1 0 0 0 -1 87083.dat
0 Original source line 12087
1 71 -92 -350 80 -1 0 0 0 1 0 0 0 -1 87083.dat
0 Original source line 12088
1 71 -100 -350 140 1 0 0 0 1 0 0 0 1 6536.dat
0 Original source line 12089
1 71 -100 -350 80 1 0 0 0 1 0 0 0 1 6536.dat
0 Original source line 12090
1 71 -115 -350 110 0 -1 0 -1 0 0 0 0 -1 32449.dat
0 Original source line 12091
1 71 -30 -350 100 -1 0 0 0 -1 0 0 0 1 3737.dat
0 Original source line 12092
1 71 -100 -350 100 0 0 1 0 -1 0 1 0 0 10928.dat
0 Original source line 12094
1 71 -85 -350 110 0 -1 0 -1 0 0 0 0 -1 32449.dat
0 Original source line 12095
1 71 -75 -350 110 0 -1 0 -1 0 0 0 0 -1 32449.dat
0 Original source line 12096
1 71 -100 -330 120 0 -1 0 0 0 1 -1 0 0 15462.dat
0 Original source line 12097
1 71 -100 -330 110 1 0 0 0 -1 0 0 0 -1 4716.dat
0 Original source line 12098
1 71 -100 -330 180 1 0 0 0 -1 0 0 0 -1 18948.dat
0 Original source line 12099
1 71 -100 -330 220 0 0 1 0 1 0 -1 0 0 4519.dat
0 Original source line 12101
1 71 -60 -350 120 0 1 0 1 0 0 0 0 -1 32525.dat
0 Original source line 12102
1 71 -60 -350 20 -1 0 0 0 1 0 0 0 -1 6558.dat
0 Original source line 12103
1 71 -60 -350 60 -1 0 0 0 1 0 0 0 -1 6558.dat
0 Original source line 12104
1 71 -70 -350 120 -1 0 0 0 1 0 0 0 -1 2780.dat
0 Original source line 12105
1 71 -60 -350 220 -1 0 0 0 1 0 0 0 -1 11214.dat
0 Original source line 12106
1 71 -40 -350 20 0 1 0 -1 0 0 0 0 1 60484.dat
0 Original source line 12107
1 71 -45 -350 100 0 0 -1 -1 0 0 0 1 0 32123a.dat
0 Original source line 12108
1 71 -35 -350 100 0 0 -1 -1 0 0 0 1 0 4185.dat
0 Original source line 12109
1 71 0 -350 100 -1 0 0 0 1 0 0 0 -1 62462.dat
0 Original source line 12110
1 71 -25 -350 100 0 0 -1 -1 0 0 0 1 0 32123a.dat
0 Original source line 12111
1 71 25 -350 100 0 0 -1 -1 0 0 0 1 0 32123a.dat
0 Original source line 12113
1 71 35 -350 100 0 0 -1 -1 0 0 0 1 0 4185.dat
0 Original source line 12114
1 71 45 -350 100 0 0 -1 -1 0 0 0 1 0 32123a.dat
