0 42042 actual retained first winch interface excerpt
0 Author: Philippe Hurbain [Philo]
0 !LICENSE Licensed under CC BY 2.0: see CAreadme.txt
0 Source: https://library.ldraw.org/library/omr/42042-1.mpd
0 Original SHA256: d9c3aa6e0351fd7bcc352e817dafd2c095d4192d7f691ddbb7c5eece03d7237b
0 Exact composed occurrences12085..12097; original member colours replaced by test grey71.
0 Only the keyed carrier and captured input/output shafts; ropes/pulleys and surrounding supports remain outside this regression scope.
0 Original source line 12085
1 71 -125 -350 110 0 -1 0 -1 0 0 0 0 -1 32449.dat
0 Original source line 12086
1 71 -92 -350 140 -1 0 0 0 1 0 0 0 -1 87083.dat
0 Original source line 12087
1 71 -92 -350 80 -1 0 0 0 1 0 0 0 -1 87083.dat
0 Original source line 12088
1 71 -100 -350 140 1 0 0 0 1 0 0 0 1 6536.dat
0 Original source line 12089
1 71 -100 -350 80 1 0 0 0 1 0 0 0 1 6536.dat
0 Original source line 12090
1 71 -115 -350 110 0 -1 0 -1 0 0 0 0 -1 32449.dat
0 Original source line 12091
1 71 -30 -350 100 -1 0 0 0 -1 0 0 0 1 3737.dat
0 Original source line 12092
1 71 -100 -350 100 0 0 1 0 -1 0 1 0 0 10928.dat
0 Original source line 12094
1 71 -85 -350 110 0 -1 0 -1 0 0 0 0 -1 32449.dat
0 Original source line 12095
1 71 -75 -350 110 0 -1 0 -1 0 0 0 0 -1 32449.dat
0 Original source line 12096
1 71 -100 -330 120 0 -1 0 0 0 1 -1 0 0 15462.dat
0 Original source line 12097
1 71 -100 -330 110 1 0 0 0 -1 0 0 0 -1 4716.dat
