0 Source drivetrain routing excerpt from 42042-1
0 Name: 42042-routing.ldr
0 Author: Philippe Hurbain [Philo]; excerpt prepared by Brick Editor maintainers
0 !LICENSE Redistributable under CCAL version 2.0 : see CAreadme.txt
0 // Original source: https://library.ldraw.org/library/omr/42042-1.mpd
0 // Original model SHA256: d9c3aa6e0351fd7bcc352e817dafd2c095d4192d7f691ddbb7c5eece03d7237b
0 // Exact composed source placements; uniform test colour; no complete-set simulation claim.
0 // 42042 - winch.ldr original line 12092
1 71 -100 -350 100 0 0 1 0 -1 0 1 0 0 10928.dat
0 // 42042 - winch.ldr original line 12097
1 71 -100 -330 110 1 0 0 0 -1 0 0 0 -1 4716.dat
0 // 42042 - winch2.ldr original line 12134
1 71 100 -350 160 0 0 -1 0 -1 0 -1 0 0 10928.dat
0 // 42042 - winch2.ldr original line 12139
1 71 100 -330 150 -1 0 0 0 -1 0 0 0 1 4716.dat
