0 Source drivetrain routing excerpt from 42043-1
0 Name: 42043-routing.ldr
0 Author: Philippe Hurbain [Philo]; excerpt prepared by Brick Editor maintainers
0 !LICENSE Redistributable under CCAL version 2.0 : see CAreadme.txt
0 // Original source: https://library.ldraw.org/library/omr/42043-1.mpd
0 // Original model SHA256: 6264ccf8fd18d666b68c4538eb69ddfbd87fe5bf633ebf34395b48229e9fc369
0 // Exact composed source placements; uniform test colour; no complete-set simulation claim.
0 // 42043 - cabinback.ldr original line 4967
1 71 100 -420 -140 0 0 -1 1 0 0 0 -1 0 32270.dat
0 // 42043 - cabinback.ldr original line 4983
1 71 -100 -420 -140 0 0 -1 1 0 0 0 -1 0 32270.dat
0 // 42043 - Mercedes-Benz Arocs 3245.ldr original line 231
1 71 120 -403 -140 1 0 0 0 0 -1 0 1 0 6589.dat
0 // 42043 - Mercedes-Benz Arocs 3245.ldr original line 238
1 71 -120 -437 -140 -1 0 0 0 0 1 0 1 0 6589.dat
0 // 42043 - dumplift.ldr original line 5884
1 71 0 -200 433 0 -1 0 1 0 0 0 0 1 6589.dat
0 // 42043 - dumplift.ldr original line 5913
1 71 20 -200 460 0 0 1 -0.164 -0.986 0 0.986 -0.164 0 87407.dat
0 // 42043 - dumplift.ldr original line 5915
1 71 0 -204.439 486.633 0 -1 0 -0.986 0 0.164 -0.164 0 -0.986 6589.dat
0 // 42043 - rearaxles.ldr original line 6007
1 71 0 -80 500 0 0 1 0 1 0 -1 0 0 62821.dat
0 // 42043 - rearaxles.ldr original line 6008
1 71 -17 -80 500 0 0 1 0 1 0 -1 0 0 6589.dat
0 // 42043 - rearaxles.ldr original line 6009
1 71 0 -97 500 -0.966 -0.259 0 0 0 1 -0.259 0.966 0 6589.dat
0 // 42043 - rearaxles.ldr original line 6010
1 71 17 -80 500 0 0 -1 0 1 0 1 0 0 6589.dat
0 // 42043 - rearaxles2.ldr original line 6116
1 71 0 -80 700 0 0 -1 0 1 0 1 0 0 62821.dat
0 // 42043 - rearaxles2.ldr original line 6117
1 71 17 -80 700 0 0 -1 0 1 0 1 0 0 6589.dat
0 // 42043 - rearaxles2.ldr original line 6118
1 71 0 -97 700 0.966 0.259 0 0 0 1 0.259 -0.966 0 6589.dat
0 // 42043 - rearaxles2.ldr original line 6119
1 71 -17 -80 700 0 0 1 0 1 0 -1 0 0 6589.dat
