0 42042-1 drivetrain interfaces: attributed minimal source assembly excerpt
0 Author: Philippe Hurbain [Philo]; assembly excerpt by Brick Editor maintainers
0 !LICENSE Redistributable under CCAL version 2.0 : see CAreadme.txt
0 !SOURCE https://library.ldraw.org/library/omr/42042-1.mpd
0 !SOURCE_SHA256 d9c3aa6e0351fd7bcc352e817dafd2c095d4192d7f691ddbb7c5eece03d7237b
0 // Flattened original nested placements; no invented mounting or part geometry.
0 // Deliberately partial fixture: motor interfaces and one selector shaft only.
0 // Source line 781: 42042 - gearbox.ldr
1 71 60 -290 280 0 -1 0 -1 0 0 0 0 -1 18946.dat
0 // Source line 782: 42042 - gearbox.ldr
1 71 60 -290 320 0 -1 0 -1 0 0 0 0 -1 18948.dat
0 // Source line 1043: 42042 - gearbox4.ldr
1 71 80 -250 230 0 0.1392 0.9903 0 0.9903 -0.1392 -1 0 0 3705.dat
0 // Source line 804: 42042 - gearbox.ldr
1 71 60 -290 320 -1 0 0 0 -1 0 0 0 1 18947.dat
0 // Source line 813: 42042 - gearbox.ldr
1 71 60 -290 360 -0.1908 -0.9816 0 -0.9816 0.1908 0 0 0 -1 18946.dat
0 // Source line 918: 42042 - gearbox.ldr
1 71 80 -250 220 0 -1 0 -1 0 0 0 0 -1 48989.dat
0 // Source line 1077: 42042 - powerFuncMotorL-1.ldr
1 71 80 -250 210 0 -1 0 -1 0 0 0 0 -1 99499.dat
